<?xml version="1.0" standalone="no"?>
<!DOCTYPE svg PUBLIC "-//W3C//DTD SVG 20010904//EN"
 "http://www.w3.org/TR/2001/REC-SVG-20010904/DTD/svg10.dtd">
<svg version="1.0" xmlns="http://www.w3.org/2000/svg"
 width="1732.000000pt" height="313.000000pt" viewBox="0 0 1732.000000 313.000000"
 preserveAspectRatio="xMidYMid meet">

<g transform="translate(0.000000,313.000000) scale(0.100000,-0.100000)"
fill="#000000" stroke="none">
<path d="M1995 3040 c-96 -8 -195 -35 -345 -92 -350 -135 -660 -513 -724 -885
-9 -48 -22 -93 -30 -101 -8 -8 -36 -18 -62 -23 -27 -5 -58 -13 -69 -18 -11 -6
-50 -24 -88 -40 -86 -38 -212 -136 -277 -214 -65 -79 -146 -242 -164 -331 -25
-118 -30 -260 -12 -374 25 -162 81 -283 195 -418 132 -157 337 -267 546 -292
44 -6 385 -11 760 -11 756 -1 725 -4 725 63 0 18 -6 41 -14 51 -13 19 -37 19
-702 20 -589 1 -703 3 -784 17 -160 27 -264 80 -376 188 -162 158 -228 314
-228 540 0 110 3 135 28 210 95 285 294 455 577 494 71 10 76 18 89 130 14
115 42 208 105 342 144 310 410 521 743 589 50 11 131 16 251 16 154 0 188 -3
273 -25 248 -63 462 -209 595 -407 65 -95 84 -135 118 -239 15 -47 32 -90 39
-97 6 -7 41 -17 77 -22 82 -13 134 -35 177 -72 43 -38 73 -44 111 -25 26 14
31 22 31 54 0 21 -7 48 -16 61 -18 25 -109 69 -201 97 -71 22 -79 28 -88 61
-3 14 -22 58 -41 97 -182 367 -518 607 -914 652 -134 15 -165 15 -305 4z"/>
<path d="M4875 2628 c-4 -13 -35 -167 -35 -174 0 -2 81 -4 180 -4 131 0 180
-3 180 -12 0 -12 -258 -1245 -265 -1266 -3 -9 49 -12 243 -12 l247 0 135 643
135 642 184 5 185 5 17 80 c10 44 18 86 18 93 1 18 -1218 18 -1224 0z"/>
<path d="M6242 2575 c-7 -35 -15 -71 -18 -80 -5 -13 21 -15 224 -15 l229 0 12
58 c6 31 14 67 17 80 l6 22 -229 0 -230 0 -11 -65z"/>
<path d="M13077 2626 c-131 -47 -185 -139 -223 -377 l-7 -39 245 0 245 0 25
118 24 117 152 3 c84 1 152 -1 152 -5 0 -5 -21 -108 -47 -230 l-47 -223 -153
0 -153 0 -6 -27 c-3 -16 -10 -44 -14 -63 -4 -19 -11 -47 -14 -62 l-6 -28 148
0 c82 0 151 -2 154 -5 4 -4 -25 -150 -78 -392 l-16 -73 -150 0 -151 0 7 50 c4
28 9 57 12 65 5 13 -26 15 -239 15 -138 0 -248 -4 -251 -9 -10 -16 -19 -157
-12 -185 11 -43 62 -92 108 -105 31 -9 174 -11 513 -9 460 3 471 3 510 25 54
29 110 89 134 143 22 50 101 415 101 467 0 22 -9 43 -29 65 l-29 32 49 43 c26
24 52 58 58 76 6 18 29 120 52 227 57 273 50 326 -51 378 -44 22 -46 22 -510
22 -365 -1 -473 -4 -503 -14z"/>
<path d="M14560 2631 c-75 -23 -146 -87 -179 -161 -25 -58 -241 -1085 -241
-1149 0 -62 30 -108 90 -139 l45 -23 480 3 480 3 54 30 c64 36 116 100 136
170 8 28 41 180 74 338 l58 287 -399 0 c-376 0 -399 1 -394 18 3 9 24 105 46
212 23 107 43 203 46 213 5 15 21 17 155 17 120 0 149 -3 149 -14 0 -8 -9 -58
-20 -111 -11 -53 -20 -101 -20 -106 0 -5 108 -9 244 -9 l243 0 22 108 c33 169
27 226 -31 278 -46 42 -70 44 -552 43 -254 0 -472 -4 -486 -8z m467 -843 c-3
-13 -24 -111 -47 -218 -23 -107 -43 -203 -46 -212 -5 -16 -21 -18 -155 -18
-118 0 -149 3 -149 13 0 20 89 438 96 448 3 5 73 9 156 9 l150 0 -5 -22z"/>
<path d="M16013 2624 c-53 -19 -128 -85 -154 -136 -30 -60 -252 -1120 -246
-1179 5 -59 38 -106 91 -130 38 -17 74 -19 499 -19 295 0 473 4 501 11 23 6
64 27 91 47 88 67 91 78 220 692 123 587 124 595 82 657 -47 70 -29 68 -562
70 -405 2 -487 -1 -522 -13z m590 -336 c-19 -90 -71 -338 -116 -553 l-83 -390
-152 -3 c-84 -1 -152 1 -152 6 0 5 52 253 115 552 63 299 115 545 115 547 0 2
69 3 154 3 l153 0 -34 -162z"/>
<path d="M2067 2482 c-14 -15 -17 -41 -17 -141 0 -67 4 -131 10 -141 16 -30
59 -34 86 -9 23 21 24 29 24 149 0 110 -2 129 -18 143 -24 22 -65 21 -85 -1z"/>
<path d="M6145 2113 c-26 -126 -82 -391 -124 -590 l-77 -363 227 0 227 0 12
53 c6 28 60 286 121 572 60 286 112 528 115 538 5 16 -10 17 -224 17 l-229 0
-48 -227z"/>
<path d="M6910 2313 c-98 -52 -99 -55 -201 -534 -96 -450 -101 -494 -62 -547
10 -15 39 -37 63 -49 44 -23 46 -23 532 -23 l488 0 5 22 c17 74 25 114 25 126
0 9 -76 12 -345 12 -191 0 -345 4 -345 9 0 5 7 41 16 80 l16 71 349 0 349 0 5
23 c3 12 37 174 75 360 76 367 78 388 28 434 -44 41 -64 43 -513 43 l-433 0
-52 -27z m580 -145 c0 -14 -97 -471 -106 -500 -5 -16 -20 -18 -125 -18 -65 0
-119 3 -119 8 0 4 25 122 55 262 30 140 55 256 55 258 0 1 54 2 120 2 89 0
120 -3 120 -12z"/>
<path d="M8196 2323 c-7 -24 -246 -1147 -246 -1156 0 -4 102 -6 227 -5 l227 3
108 505 c59 278 108 506 108 508 0 1 54 2 120 2 89 0 120 -3 120 -12 0 -7 -47
-233 -105 -503 -58 -269 -105 -493 -105 -497 0 -7 450 -12 450 -5 0 1 49 229
108 507 l108 505 122 3 c67 1 122 -1 122 -5 0 -4 -47 -228 -105 -497 -58 -269
-105 -495 -105 -502 0 -12 41 -14 224 -14 l224 0 11 48 c57 247 203 957 204
995 1 56 -22 93 -74 119 -32 17 -95 18 -886 18 -802 0 -852 -1 -857 -17z"/>
<path d="M10140 1758 c-68 -321 -138 -652 -155 -735 l-32 -153 227 0 227 0 27
127 c15 71 29 136 32 145 5 15 32 17 282 20 262 3 279 4 317 25 55 29 118 99
138 154 23 61 177 814 177 864 0 22 -9 54 -20 73 -38 62 -37 62 -593 62 l-503
0 -124 -582z m785 400 c-10 -41 -175 -828 -175 -833 0 -3 -54 -5 -120 -5 -108
0 -120 2 -120 18 0 17 166 807 175 830 3 9 38 12 125 12 120 0 120 0 115 -22z"/>
<path d="M11644 2329 c-47 -14 -120 -83 -138 -132 -8 -23 -54 -229 -102 -457
-79 -379 -86 -419 -75 -457 14 -52 60 -99 109 -113 51 -14 789 -13 846 1 23 6
64 27 91 47 85 65 94 91 190 552 90 428 94 465 60 516 -34 53 -48 54 -517 53
-238 0 -447 -5 -464 -10z m552 -166 c-3 -10 -44 -200 -91 -423 -48 -223 -89
-408 -92 -412 -2 -5 -58 -8 -124 -8 -119 0 -119 0 -114 23 3 12 44 202 91 422
47 219 88 403 90 407 3 4 59 8 125 8 110 0 120 -2 115 -17z"/>
<path d="M3713 2014 c-18 -9 -43 -33 -55 -53 -23 -36 -23 -41 -23 -376 0 -482
-38 -445 453 -445 370 0 371 0 422 55 l25 27 3 343 c3 333 2 346 -18 385 -15
30 -33 47 -63 61 -39 17 -69 19 -377 19 -287 0 -340 -3 -367 -16z m690 -123
c4 -4 6 -144 5 -312 l-3 -304 -310 -3 c-283 -2 -311 -1 -322 15 -10 12 -13 90
-13 304 0 287 0 288 23 304 19 14 55 15 317 9 162 -3 298 -10 303 -13z"/>
<path d="M2672 973 c-18 -9 -43 -30 -55 -47 -22 -31 -22 -36 -22 -381 l0 -350
23 -33 c48 -67 50 -67 427 -67 322 0 342 1 374 20 19 11 43 33 55 48 20 28 21
38 21 377 0 338 -1 349 -21 377 -11 15 -36 38 -54 51 -33 22 -37 22 -374 22
-294 0 -346 -3 -374 -17z m682 -122 c14 -12 16 -50 16 -312 l0 -299 -26 -10
c-14 -6 -149 -10 -309 -10 -246 0 -286 2 -299 16 -14 14 -16 53 -14 312 l3
296 25 14 c36 19 580 12 604 -7z"/>
<path d="M3725 970 c-80 -39 -80 -40 -83 -430 -2 -333 -2 -346 18 -378 38 -62
60 -66 400 -70 338 -4 391 1 432 46 45 48 48 62 48 256 0 173 -1 186 -19 196
-31 16 -69 12 -91 -10 -18 -18 -20 -33 -20 -180 l0 -160 -26 -10 c-14 -6 -149
-10 -308 -10 -261 0 -284 1 -299 18 -15 16 -17 53 -17 310 l0 292 24 16 c22
14 61 15 360 8 304 -6 337 -5 361 10 19 12 25 25 25 51 0 65 -1 65 -405 65
-340 0 -362 -1 -400 -20z"/>
<path d="M2090 823 c-34 -12 -40 -36 -40 -164 0 -121 1 -129 22 -143 30 -21
61 -20 81 2 14 15 17 41 17 143 0 85 -4 130 -12 141 -15 19 -47 28 -68 21z"/>
</g>
</svg>
